<svg width="18" height="18" viewBox="0 0 18 18" fill="none" xmlns="http://www.w3.org/2000/svg">
<g id="shortcut-script-app 1" clip-path="url(#clip0_48_170)">
<g id="Group">
<path id="Vector" d="M9.43889 10.5031L4.39505 6.3654C4.37445 6.34868 4.31166 6.29773 4.31166 6.19099C4.31166 6.08425 4.37445 6.03333 4.39505 6.01658L9.43889 1.86224C9.75085 1.60905 10.1333 1.48244 10.5157 1.48244C10.8081 1.48244 11.1004 1.55671 11.3613 1.70472L11.2865 1.64405C9.92835 0.541827 7.98267 0.541827 6.6245 1.64405L3.14091 4.47123C2.04831 5.35795 2.04831 7.024 3.14091 7.91071L6.62454 10.7379C7.9827 11.8402 9.92838 11.8402 11.2865 10.7379L11.4422 10.6116C10.8295 11.0061 10.0144 10.9702 9.43889 10.5031Z" fill="#90A3F3"/>
<path id="Vector_2" d="M8.95558 12.2281C7.95752 12.2281 6.98124 11.8819 6.20651 11.2531L2.72289 8.42594C2.04621 7.87673 1.65808 7.06217 1.65808 6.19108C1.65808 5.31999 2.04618 4.50542 2.72289 3.95622L6.20651 1.12903C6.98124 0.500286 7.95752 0.154053 8.95558 0.154053C9.95365 0.154053 10.9299 0.500286 11.7046 1.12903L15.1883 3.95622C16.0785 4.6787 16.455 5.86007 16.1475 6.96591C16.0493 7.31887 15.6837 7.52552 15.3305 7.42731C14.9775 7.32915 14.771 6.96342 14.8692 6.61042C15.0352 6.01351 14.8323 5.37608 14.3522 4.98646L10.8685 2.15924C9.7601 1.25969 8.15107 1.25969 7.04264 2.15924L3.55901 4.98646C3.19417 5.28254 2.9849 5.72162 2.9849 6.19108C2.9849 6.66054 3.19417 7.09962 3.55901 7.3957L7.04264 10.2229C8.14914 11.1209 9.75459 11.1225 10.8629 10.2275L11.4448 9.73252C11.7238 9.49515 12.1425 9.52889 12.3799 9.80802C12.6173 10.0871 12.5835 10.5058 12.3044 10.7432L11.7164 11.2433C11.7125 11.2466 11.7086 11.2499 11.7046 11.2531C10.93 11.8819 9.95365 12.2281 8.95558 12.2281Z" fill="#2F3F8D"/>
<path id="Vector_3" d="M8.95561 17.1373C7.95754 17.1373 6.98127 16.7911 6.20654 16.1624L2.72291 13.3352C1.90721 12.6732 1.517 11.619 1.70448 10.584C1.76982 10.2235 2.11523 9.9843 2.47552 10.0495C2.83602 10.1148 3.07535 10.46 3.01003 10.8206C2.90883 11.3792 3.1192 11.948 3.55904 12.305L7.04267 15.1322C8.15109 16.0317 9.76012 16.0317 10.8685 15.1322L14.3522 12.305C14.717 12.0089 14.9263 11.5698 14.9263 11.1004C14.9263 10.6309 14.717 10.1918 14.3522 9.89573L10.8685 7.06855C9.76055 6.16933 8.15222 6.16903 7.04376 7.06765L6.55678 7.46702C6.27354 7.69942 5.85549 7.65809 5.62317 7.37478C5.39084 7.09147 5.43211 6.67345 5.71542 6.44113L6.20654 6.03831C6.98127 5.40953 7.95754 5.06329 8.95561 5.06329C9.95367 5.06329 10.9299 5.40953 11.7047 6.03827L15.1883 8.86546C15.865 9.41466 16.2531 10.2292 16.2531 11.1003C16.2531 11.9714 15.865 12.786 15.1883 13.3352L11.7047 16.1624C10.93 16.7911 9.95367 17.1373 8.95561 17.1373Z" fill="#69BDCB"/>
</g>
</g>
<defs>
<clipPath id="clip0_48_170">
<rect width="16.9833" height="16.9833" fill="white" transform="translate(0.463989 0.154053)"/>
</clipPath>
</defs>
</svg>
